<svg xmlns="http://www.w3.org/2000/svg" width="607.855" height="308" viewBox="0 0 607.855 308">
  <g id="Group_79" data-name="Group 79" transform="translate(-285 -393)">
    <line id="Line_15" data-name="Line 15" y2="295" transform="translate(330.5 397.5)" fill="none" stroke="#e6e6e6" stroke-width="1"/>
    <line id="Line_16" data-name="Line 16" x1="561" transform="translate(331 692)" fill="none" stroke="#e6e6e6" stroke-width="1"/>
    <path id="Path_7" data-name="Path 7" d="M0,146S16.371,70.939,54.055,62.086s48.066,68.708,96.681,48.5S206.219,8.9,248.517-18.748,290.265,0,319.929,0s28.565-18.748,47.242-18.748,18.952,160.511,42.848,176.678S430.893,56.312,462.754,45.919s19.3,27.646,43.946,16.167S540.758,7.812,561.334,0" transform="translate(331.166 486.5)" fill="none" stroke="#ce9920" stroke-width="2"/>
    <path id="Path_8" data-name="Path 8" d="M0,59.231S36.048,45.95,73.733,41.523s28.3-14.146,76.913-24.25S210.257,45.321,252.555,31.5s33.789-64.673,63.453-64.673,23.625,19.405,42.3,19.405,43.4,37.184,67.3,45.268,5.283-17.112,37.145-22.308,17.046,46.237,41.691,40.5,36.313-59.551,56.889-63.457" transform="translate(331.166 609.995)" fill="none" stroke="#4fe619" stroke-width="2"/>
    <path id="Path_9" data-name="Path 9" d="M561.334,25.435S525.285,17.012,487.6,14.2,459.3,5.232,410.689-1.177s-59.612,17.79-101.91,9.022-33.789-41.02-63.453-41.02-23.625,12.308-42.3,12.308-43.4,23.585-67.3,28.712S130.441-3.008,98.58-6.3,81.534,23.023,56.889,19.382,20.576-18.389,0-20.866" transform="translate(331.166 535.218)" fill="none" stroke="#010187" stroke-width="2"/>
    <path id="Path_10" data-name="Path 10" d="M0-33.174s36.048,3.3,73.733,4.406,28.3,3.52,76.913,6.034,59.612-6.979,101.91-3.539,33.789,16.091,63.453,16.091,23.625-4.828,42.3-4.828,43.4-9.252,67.3-11.263,5.283,4.258,37.145,5.55S479.8-32.228,504.445-30.8s36.313,14.817,56.889,15.789" transform="translate(331.166 690.836)" fill="none" stroke="#f21313" stroke-width="2"/>
    <text id="_100k" data-name="100k" transform="translate(285 408)" fill="#00002e" font-size="16" font-family="Gotham-Book, Gotham"><tspan x="0" y="0">100k</tspan></text>
    <text id="_-" data-name="-" transform="translate(324 408)" fill="#00002e" font-size="16" font-family="Gotham-Book, Gotham"><tspan x="0" y="0">-</tspan></text>
    <text id="_50k" data-name="50k" transform="translate(293 466)" fill="#00002e" font-size="16" font-family="Gotham-Book, Gotham"><tspan x="0" y="0">50k</tspan></text>
    <text id="_--2" data-name="-" transform="translate(324 466)" fill="#00002e" font-size="16" font-family="Gotham-Book, Gotham"><tspan x="0" y="0">-</tspan></text>
    <text id="_20k" data-name="20k" transform="translate(294 524)" fill="#00002e" font-size="16" font-family="Gotham-Book, Gotham"><tspan x="0" y="0">20k</tspan></text>
    <text id="_--3" data-name="-" transform="translate(324 524)" fill="#00002e" font-size="16" font-family="Gotham-Book, Gotham"><tspan x="0" y="0">-</tspan></text>
    <text id="_10k" data-name="10k" transform="translate(297 582)" fill="#00002e" font-size="16" font-family="Gotham-Book, Gotham"><tspan x="0" y="0">10k</tspan></text>
    <text id="_--4" data-name="-" transform="translate(324 582)" fill="#00002e" font-size="16" font-family="Gotham-Book, Gotham"><tspan x="0" y="0">-</tspan></text>
    <text id="_5k" data-name="5k" transform="translate(304 640)" fill="#00002e" font-size="16" font-family="Gotham-Book, Gotham"><tspan x="0" y="0">5k</tspan></text>
    <text id="_--5" data-name="-" transform="translate(324 640)" fill="#00002e" font-size="16" font-family="Gotham-Book, Gotham"><tspan x="0" y="0">-</tspan></text>
    <text id="_0" data-name="0" transform="translate(311 698)" fill="#00002e" font-size="16" font-family="Gotham-Book, Gotham"><tspan x="0" y="0">0</tspan></text>
    <text id="_--6" data-name="-" transform="translate(324 698)" fill="#00002e" font-size="16" font-family="Gotham-Book, Gotham"><tspan x="0" y="0">-</tspan></text>
  </g>
</svg>
