<svg xmlns="http://www.w3.org/2000/svg" width="267.686" height="308" viewBox="0 0 267.686 308">
  <g id="Group_78" data-name="Group 78" transform="translate(-43 -489)">
    <line id="Line_15" data-name="Line 15" y2="295" transform="translate(83.786 493.5)" fill="none" stroke="#e6e6e6" stroke-width="1"/>
    <line id="Line_16" data-name="Line 16" x1="226" transform="translate(84 788)" fill="none" stroke="#e6e6e6" stroke-width="1"/>
    <path id="Path_7" data-name="Path 7" d="M0,146S6.586,70.939,21.747,62.086s19.338,68.708,38.9,48.5S82.965,8.9,99.982-18.748,116.779,0,128.713,0s11.492-18.748,19.006-18.748,7.625,160.511,17.238,176.678,8.4-101.619,21.216-112.012,7.765,27.646,17.68,16.167S217.556,7.812,225.834,0" transform="translate(84.166 582.5)" fill="none" stroke="#ce9920" stroke-width="2"/>
    <path id="Path_8" data-name="Path 8" d="M0,59.231S14.5,45.95,29.664,41.523s11.384-14.146,30.943-24.25,23.983,28.048,41,14.225S115.2-33.174,127.135-33.174s9.5,19.405,17.019,19.405S161.616,23.415,171.23,31.5s2.126-17.112,14.944-22.308,6.858,46.237,16.773,40.5,14.609-59.551,22.887-63.457" transform="translate(84.166 705.995)" fill="none" stroke="#4fe619" stroke-width="2"/>
    <path id="Path_9" data-name="Path 9" d="M225.834,25.435s-14.5-8.423-29.664-11.231S184.786,5.232,165.227-1.177s-23.983,17.79-41,9.022S110.633-33.174,98.7-33.174s-9.5,12.308-17.019,12.308S64.218,2.718,54.6,7.845,52.479-3.008,39.66-6.3,32.8,23.023,22.887,19.382,8.278-18.389,0-20.866" transform="translate(84.166 631.218)" fill="none" stroke="#010187" stroke-width="2"/>
    <path id="Path_10" data-name="Path 10" d="M0-33.174a225.9,225.9,0,0,0,29.664,4.406c15.161,1.1,11.384,3.52,30.943,6.034s23.983-6.979,41-3.539S115.2-10.183,127.135-10.183s9.5-4.828,17.019-4.828,17.462-9.252,27.076-11.263,2.126,4.258,14.944,5.55,6.858-11.5,16.773-10.076,14.609,14.817,22.887,15.789" transform="translate(84.166 786.836)" fill="none" stroke="#f21313" stroke-width="2"/>
    <text id="_100k" data-name="100k" transform="translate(43 504)" fill="#00002e" font-size="12" font-family="Gotham-Book, Gotham"><tspan x="0" y="0">100k</tspan></text>
    <text id="_-" data-name="-" transform="translate(77 504)" fill="#00002e" font-size="16" font-family="Gotham-Book, Gotham"><tspan x="0" y="0">-</tspan></text>
    <text id="_50k" data-name="50k" transform="translate(51 562)" fill="#00002e" font-size="12" font-family="Gotham-Book, Gotham"><tspan x="0" y="0">50k</tspan></text>
    <text id="_--2" data-name="-" transform="translate(77 562)" fill="#00002e" font-size="16" font-family="Gotham-Book, Gotham"><tspan x="0" y="0">-</tspan></text>
    <text id="_20k" data-name="20k" transform="translate(52 620)" fill="#00002e" font-size="12" font-family="Gotham-Book, Gotham"><tspan x="0" y="0">20k</tspan></text>
    <text id="_--3" data-name="-" transform="translate(77 620)" fill="#00002e" font-size="16" font-family="Gotham-Book, Gotham"><tspan x="0" y="0">-</tspan></text>
    <text id="_10k" data-name="10k" transform="translate(55 678)" fill="#00002e" font-size="12" font-family="Gotham-Book, Gotham"><tspan x="0" y="0">10k</tspan></text>
    <text id="_--4" data-name="-" transform="translate(77 678)" fill="#00002e" font-size="16" font-family="Gotham-Book, Gotham"><tspan x="0" y="0">-</tspan></text>
    <text id="_5k" data-name="5k" transform="translate(62 736)" fill="#00002e" font-size="12" font-family="Gotham-Book, Gotham"><tspan x="0" y="0">5k</tspan></text>
    <text id="_--5" data-name="-" transform="translate(77 736)" fill="#00002e" font-size="16" font-family="Gotham-Book, Gotham"><tspan x="0" y="0">-</tspan></text>
    <text id="_0" data-name="0" transform="translate(69 794)" fill="#00002e" font-size="12" font-family="Gotham-Book, Gotham"><tspan x="0" y="0">0</tspan></text>
    <text id="_--6" data-name="-" transform="translate(77 794)" fill="#00002e" font-size="16" font-family="Gotham-Book, Gotham"><tspan x="0" y="0">-</tspan></text>
  </g>
</svg>
