<svg xmlns="http://www.w3.org/2000/svg" width="67.883" height="67.883" viewBox="0 0 67.883 67.883">
  <path id="Union_1" data-name="Union 1" d="M-4590.25,1205.453a10.445,10.445,0,0,1,.705-3.785l-4.956-2.84-4.955,2.839a10.45,10.45,0,0,1,.705,3.786A10.586,10.586,0,0,1-4609.375,1216,10.587,10.587,0,0,1-4620,1205.453a10.586,10.586,0,0,1,10.625-10.547,10.631,10.631,0,0,1,7.626,3.2l4.415-2.53v-3.7a10.569,10.569,0,0,1-8.5-10.335A10.586,10.586,0,0,1-4595.208,1171a10.586,10.586,0,0,1,10.625,10.547,10.57,10.57,0,0,1-8.5,10.335v2.886l5.831,3.342a10.631,10.631,0,0,1,7.627-3.2A10.586,10.586,0,0,1-4569,1205.453,10.587,10.587,0,0,1-4579.625,1216,10.587,10.587,0,0,1-4590.25,1205.453Z" transform="translate(4126.675 2438.811) rotate(45)" fill="#7e7e95"/>
</svg>
